<svg width="35" height="35" viewBox="0 0 35 35" fill="none" xmlns="http://www.w3.org/2000/svg">
<path d="M16.8453 28.1045C15.082 28.1045 13.3503 27.6952 11.7445 26.845C10.0127 25.9319 8.53285 24.6095 7.49379 22.9407L9.09961 21.9331C9.94974 23.287 11.1777 24.4206 12.5946 25.1448C14.7672 26.2783 17.2861 26.4987 19.6161 25.7745C21.9776 25.0503 23.8668 23.4445 25.0003 21.2404L26.6691 22.122C25.3152 24.7354 22.9852 26.6876 20.1514 27.5692C19.1123 27.9156 17.9788 28.1045 16.8453 28.1045ZM12.815 12.1093H10.9258V14.1874H12.815V12.1093ZM22.2295 12.1093H20.3403V14.1874H22.2295V12.1093ZM6.61217 29.0176C5.28974 27.8211 4.18771 26.3727 3.33757 24.7354L1.66879 25.6171C2.61338 27.4433 3.84136 29.0491 5.32122 30.403L6.61217 29.0176ZM29.188 30.0567C32.4311 26.8765 34.2888 22.5943 34.3833 18.0603L32.4941 18.0288C32.3052 26.3412 25.4096 33.1423 17.0657 33.1423C14.9246 33.1423 12.8465 32.7015 10.8629 31.8514L10.1072 33.5831C12.3427 34.5592 14.6727 35.063 17.0657 35.063C21.6312 35 25.9449 33.2368 29.188 30.0567ZM31.1717 7.60676C30.7623 7.00852 30.29 6.41027 29.6918 5.78054L28.3379 7.10298C28.8417 7.63825 29.2825 8.17352 29.6288 8.6773L31.1717 7.60676ZM26.3227 3.04122C25.3781 2.44297 24.591 2.03365 23.7723 1.71878L23.0481 3.48203C23.7408 3.7654 24.465 4.14324 25.2837 4.67851L26.3227 3.04122ZM17.0972 2.22257C18.4511 2.22257 19.7735 2.38 21.033 2.72635L21.5053 0.900131C20.0884 0.522293 18.5771 0.333374 17.0972 0.333374C8.56434 0.333374 1.38541 6.41027 0 14.7542L1.85771 15.0691C3.11717 7.63825 9.50893 2.22257 17.0972 2.22257Z" fill="#1F65D9"/>
</svg>
