<svg width="35" height="35" viewBox="0 0 35 35" fill="none" xmlns="http://www.w3.org/2000/svg">
<path d="M30.097 29.3588L28.7103 28.0982C29.8764 26.8061 30.8218 25.3879 31.4836 23.8752L33.217 24.6316C32.4606 26.3334 31.4206 27.9091 30.097 29.3588ZM34.6667 17.6667C34.6667 8.11762 26.8824 0.333374 17.3333 0.333374C16.0412 0.333374 14.7806 0.459435 13.583 0.743071L13.9927 2.60246C15.0642 2.35034 16.1988 2.22428 17.3333 2.22428C25.8424 2.22428 32.7758 9.15762 32.7758 17.6667C32.7758 18.4546 32.7127 19.2109 32.5867 19.9043L34.4461 20.2194C34.6036 19.4316 34.6667 18.5491 34.6667 17.6667ZM5.42061 7.80246L3.93939 6.60489C3.46667 7.20368 3.08848 7.70792 2.74182 8.24368L4.31758 9.28368C4.66424 8.81095 5.01091 8.33822 5.42061 7.80246ZM22.4073 34.2437L21.84 32.4473C20.3903 32.8885 18.8776 33.1406 17.3333 33.1406C8.82424 33.1091 1.89091 26.1758 1.89091 17.6667C1.89091 16.091 2.11152 14.5467 2.58424 13.0655L0.787879 12.4982C0.252121 14.1685 0 15.9019 0 17.6667C0 27.2158 7.78424 35 17.3333 35C19.0667 35 20.7685 34.7479 22.4073 34.2437ZM17.3333 6.85701C19.2558 6.85701 21.1152 7.36125 22.7539 8.30671L23.6994 6.66792C21.777 5.56489 19.5709 4.9661 17.3333 4.9661C10.337 4.9661 4.63273 10.6703 4.63273 17.6667H6.52364C6.52364 11.7103 11.377 6.85701 17.3333 6.85701ZM9.83273 25.4509C9.26545 24.9152 8.79273 24.3479 8.41455 23.7491L6.80727 24.7576C7.28 25.4825 7.84727 26.1758 8.54061 26.8376L9.83273 25.4509ZM30.0339 17.6667H28.143C28.143 23.6231 23.2897 28.4764 17.3333 28.4764C15.4109 28.4764 13.5515 27.9722 11.9127 27.0267L10.9673 28.6655C12.8897 29.7685 15.0958 30.3673 17.3333 30.3673C24.3297 30.3673 30.0339 24.6631 30.0339 17.6667ZM27.8594 10.5758C27.4182 9.85095 26.8194 9.15762 26.1576 8.4958L24.8655 9.88246C25.4327 10.4182 25.9055 10.9855 26.2836 11.5843L27.8594 10.5758ZM23.4788 21.2279V14.1055L17.3333 10.5128L11.1879 14.1055V21.2594L17.3333 24.8206L23.4788 21.2279ZM13.0788 15.177L17.3333 12.7188L21.5879 15.2085V20.1564L17.3333 22.6146L13.0788 20.1249V15.177Z" fill="#1F65D9"/>
</svg>
