<svg width="36" height="35" viewBox="0 0 36 35" fill="none" xmlns="http://www.w3.org/2000/svg">
<path d="M29.8905 27.5807L35.9015 20.453L29.6277 3.47605L11.6606 0.333374L0 14.1676L6.30657 31.1122L24.2409 34.2873L28.6423 29.0711L34.6204 35L36 33.6393L29.8905 27.5807ZM28.511 26.1876L25.3905 23.1097C27.3613 20.6474 28.0511 17.2455 26.8686 14.0704L25.0292 14.7508C26.4416 18.5739 24.438 22.8505 20.5292 24.2761C19.2482 24.7296 17.9343 24.8592 16.6533 24.6324L16.292 26.544C16.8175 26.6412 17.3759 26.706 17.9343 26.706C19.0511 26.706 20.1679 26.5116 21.219 26.1228C22.2701 25.734 23.2226 25.1832 24.0438 24.5028L27.2628 27.6779L23.4526 32.1814L7.75183 29.3951L2.23358 14.5564L12.4489 2.43929L28.1825 5.19319L33.6679 20.0642L28.511 26.1876ZM14.9124 24.0817L14.1569 25.8636C13.5657 25.6368 13.0073 25.3128 12.4161 24.8916L13.5657 23.3365C14.0255 23.6605 14.4526 23.8873 14.9124 24.0817ZM19.6423 8.04428L19.281 9.9558C18 9.72901 16.6533 9.85861 15.4051 10.3122C11.4964 11.7377 9.4927 16.0144 10.9051 19.8698L9.06569 20.5502C7.22628 15.6904 9.78832 10.2798 14.7153 8.49786C16.3248 7.91468 18 7.75269 19.6423 8.04428ZM23.5182 9.69661L22.3358 11.2842C21.8759 10.9602 21.4489 10.701 20.9891 10.5066L21.7445 8.72465C22.3686 8.95144 22.927 9.27543 23.5182 9.69661Z" fill="#1F65D9"/>
</svg>
